<svg width="70" height="70" viewBox="0 0 70 70" fill="none" xmlns="http://www.w3.org/2000/svg">
<path d="M45.4418 57.4583C39.2876 57.8958 39.2876 66.8208 45.4418 67.2583H60.0543C61.8335 67.2583 63.5251 66.6166 64.8376 65.4208C69.1543 61.6583 66.8501 54.075 61.1626 53.375C59.121 41.0666 41.3001 45.7333 45.5293 57.4583" fill="#F4F1EB"/>
<path d="M45.4418 57.4583C39.2876 57.8958 39.2876 66.8208 45.4418 67.2583H60.0543C61.8335 67.2583 63.5251 66.6166 64.8376 65.4208C69.1543 61.6583 66.8501 54.075 61.1626 53.375C59.121 41.0666 41.3001 45.7333 45.5293 57.4583" fill="#F4F1EB"/>
<path d="M64.1668 32.2875V44.7417C64.1668 45.675 62.6793 46.0834 62.0377 45.4125C60.6668 43.9834 58.946 42.9042 56.9627 42.2917C52.3835 40.8625 47.1043 42.2625 43.7793 45.7042C41.6793 47.95 40.5418 50.75 40.4835 53.7834C40.4835 54.3084 40.221 54.775 39.8127 55.0959C37.7127 56.7584 36.4293 59.3542 36.4293 62.3292V62.3584C36.4293 63.2917 35.7585 64.1375 34.8252 64.1375H21.4085C12.8335 64.1667 5.8335 57.1667 5.8335 48.5625V18.725C5.8335 11.6084 11.6085 5.83337 18.7252 5.83337H25.4918C30.246 5.83337 31.7335 7.37921 33.6293 9.91671L37.7127 15.3417C38.6168 16.5375 38.7335 16.6834 40.4252 16.6834H48.5627C55.5043 16.6834 61.396 21.2334 63.4085 27.5334C63.846 28.8459 64.0793 30.1875 64.1377 31.6167C64.1668 31.8209 64.1668 32.0834 64.1668 32.2875Z" fill="#F4F1EB"/>
</svg>
