<svg width="63" height="58" fill="none" xmlns="http://www.w3.org/2000/svg"><path d="M56.513 29.888C59.388 26.812 61 22.66 61 18.332c0-4.327-1.612-8.48-4.487-11.555C53.615 3.717 49.69 2 45.599 2c-4.091 0-8.016 1.718-10.913 4.777L31.5 10.15l-3.186-3.373C25.417 3.717 21.492 2 17.401 2 13.309 2 9.385 3.718 6.487 6.777 3.613 9.853 2 14.005 2 18.332c0 4.328 1.613 8.48 4.487 11.556l22.919 24.298c.275.29.602.518.962.674.359.155.744.234 1.132.231.388.003.773-.076 1.132-.231.36-.156.687-.385.962-.674l7.733-7.452" stroke="#fff" stroke-width="4" stroke-linecap="round" stroke-linejoin="round"/><path d="M45.333 47v-4.333a1 1 0 00-1-1H40a1 1 0 01-1-1v-4.334a1 1 0 011-1h4.333a1 1 0 001-1V30a1 1 0 011-1h4.334a1 1 0 011 1v4.333a1 1 0 001 1H57a1 1 0 011 1v4.334a1 1 0 01-1 1h-4.333a1 1 0 00-1 1V47a1 1 0 01-1 1h-4.334a1 1 0 01-1-1z" fill="#fff" stroke="#fff" stroke-linejoin="round"/></svg>