<svg width="70" height="70" viewBox="0 0 70 70" fill="none" xmlns="http://www.w3.org/2000/svg">
<path d="M61.2502 21.9334V39.0834C61.2502 40.075 60.2877 40.775 59.3543 40.4834L47.8918 36.925C44.7418 35.9625 41.3585 36.7792 39.0543 39.0834C36.721 41.4167 35.8752 44.8292 36.8668 47.9792L40.396 59.3542C40.6877 60.2875 39.9877 61.25 38.996 61.25H21.9335C11.871 61.25 5.8335 55.2417 5.8335 45.15V21.9334C5.8335 11.8417 11.871 5.83337 21.9335 5.83337H45.1502C55.2127 5.83337 61.2502 11.8417 61.2502 21.9334Z" fill="#F4F1EB"/>
<path d="M64.0505 54.95L59.2964 56.5541C57.9839 56.9916 56.9339 58.0125 56.4964 59.3541L54.8922 64.1083C53.5214 68.2208 47.7464 68.1333 46.463 64.0208L41.0672 46.6666C40.0172 43.225 43.1964 40.0166 46.6089 41.0958L63.9922 46.4916C68.0755 47.775 68.1339 53.5791 64.0505 54.95Z" fill="#F4F1EB"/>
</svg>
