<svg width="70" height="70" viewBox="0 0 70 70" fill="none" xmlns="http://www.w3.org/2000/svg">
<path d="M61.2208 28.3209C60.2292 27.9125 58.9167 27.7084 57.2833 27.7084H41.8833C36.8083 27.7084 35 29.5167 35 34.65V57.225C35 58.9167 35.2042 60.2292 35.6417 61.25C36.5458 63.35 38.4708 64.1667 41.8833 64.1667H57.2833C62.3583 64.1667 64.1667 62.3292 64.1667 57.225V34.65C64.1667 31.1792 63.35 29.225 61.2208 28.3209ZM52.5 57.6042H46.6667C46.6083 57.6042 46.5208 57.6042 46.4625 57.575C46.025 57.5459 45.6458 57.4 45.325 57.1084C44.8 56.7292 44.4792 56.1167 44.4792 55.4167C44.4792 54.2209 45.4708 53.2292 46.6667 53.2292H52.5C53.6958 53.2292 54.6875 54.2209 54.6875 55.4167C54.6875 56.6125 53.6958 57.6042 52.5 57.6042Z" fill="#F4F1EB"/>
<path d="M61.2206 18.0542V20.4167C61.2206 22.0209 59.9081 23.3334 58.304 23.3334H41.8831C34.4165 23.3334 30.6248 27.1542 30.6248 34.65V61.25C30.6248 62.8542 29.3123 64.1667 27.7081 64.1667H22.0206C20.854 64.1667 19.9206 63.2334 19.9206 62.0959C19.9206 60.9292 20.854 60.025 22.0206 60.025H27.7081V48.8542H17.4998C11.0248 48.5334 5.8623 43.1959 5.8623 36.6334V18.0542C5.8623 11.3167 11.3456 5.83337 18.1123 5.83337H48.9998C55.7373 5.83337 61.2206 11.3167 61.2206 18.0542Z" fill="#F4F1EB"/>
</svg>
